# xmcd
#
# Track frame offsets:
#	150
#	21514
#	44962
#	69339
#
# Disc length: 1207 seconds
#
# Revision: 1
# Processed by: cddbd v1.5.1PL2 Copyright (c) Steve Scherf et al.
# Submitted via: dBpowerAMP V4.0
#
DISCID=3804b504
DTITLE=Trick Or Treat - Like Donald Duck (Demo)
DYEAR=2004
DGENRE=Power Metal
TTITLE0=Joyful In Sadness
TTITLE1=Back As A Pet
TTITLE2=Perfect Life
TTITLE3=Like Donald Duck
EXTD=
EXTT0=
EXTT1=
EXTT2=
EXTT3=
PLAYORDER=
